<svg height="512" viewBox="0 0 52 60" width="512" xmlns="http://www.w3.org/2000/svg"><g id="Page-1" fill="none" fill-rule="evenodd"><g id="001---Chicken" fill-rule="nonzero"><g id="Icons" transform="translate(1 1)"><path id="Shape" d="m40 22c0 5.073-3.218 9.757-4.53 15.3-.5511923 2.188039-.7103187 4.4564371-.47 6.7 1 9 3 12-3 11 0 0-2 4-6 1-.5855488 1.1417646-1.7208524 1.8986336-3 2-1.2791476-.1013664-2.4144512-.8582354-3-2-.5855488 1.1417646-1.7208524 1.8986336-3 2-1.2791476-.1013664-2.4144512-.8582354-3-2 0 0-4 3-5-1 0 0-3 3-5-1 0 0-7 3-2-8 0 0-5 1 1-9 0 0-3-2 3-11 3.57-5.35 6.78-9.28 10.9-11.6h.01c3.09257-1.6764951 6.5737951-2.5045367 10.09-2.4 14 0 12.943 9.9 13 10z" fill="#f5f5f5"/><path id="Shape" d="m37.893 15.8c-2.566-3.011-6.935-3.8-10.893-3.8-.525 0-1.035.015-1.533.043 3.492.186 7.186 1.106 9.452 3.791 1.4056963 1.7419995 2.1436149 3.9284514 2.081 6.166-.014926 1.3261932-.2066151 2.6444756-.57 3.92-.97 3.65-2.98 7.24-3.96 11.38-.5511923 2.188039-.7103187 4.4564371-.47 6.7.763 6.871 2.1 10.236.022 11 5.971.991 3.978-2.012 2.978-11-.2403187-2.2435629-.0811923-4.511961.47-6.7.98-4.14 2.99-7.73 3.96-11.38.3633849-1.2755244.555074-2.5938068.57-3.92.0687037-2.2531895-.6796357-4.4552323-2.107-6.2z" fill="#cfd8dc"/><path id="Shape" d="m50 23c-3.2055902-1.125433-6.6233538-1.5150581-10-1.14.0150529-1.7223574-.4303013-3.4174653-1.29-4.91-.0079957-.022933-.0146732-.0463045-.02-.07 4.715409-.7245945 9.3371263 1.7762817 11.31 6.12z" fill="#ff9801"/><path id="Shape" d="m46.484 22.079c1.1980183.1973331 2.3750873.5056609 3.516.921-1.9685468-4.3379334-6.5805345-6.8387827-11.29-6.122 3.2744821.3892922 6.1646164 2.3228642 7.774 5.201z" fill="#f57c00"/><path id="Shape" d="m50 23c-2 0-3 1-6 2-.73419.2386616-1.4822435.432354-2.24.58-.7701115.1544347-1.54787.2679273-2.33.34.3633849-1.2755244.555074-2.5938068.57-3.92v-.14c3.3766462-.3750581 6.7944098.014567 10 1.14z" fill="#f57c00"/><path id="Shape" d="m38.69 16.88h-.02c-1.7-2.81-5.23-4.88-11.67-4.88-3.5162049-.1045367-6.99743.7235049-10.09 2.4h-.01c-2.2618691-.5634551-4.0972821-2.211581-4.9-4.4-2-6 3-5 3-5-1-6 5-3 5-3 .5855488-1.14176457 1.7208524-1.8986336 3-2 1.2791476.1013664 2.4144512.85823543 3 2 3-4 6 4 6 4 2-2 6 1 6 5 .0046263 1.9799229.2361366 3.9527937.69 5.88z" fill="#f44335"/><path id="Shape" d="m29 6c.7859972-.73211333 1.9620698-.85453587 2.882-.3-.557-1.346-3.014-6.757-5.552-4.092 1.1587683 1.28270101 2.0646667 2.77285285 2.67 4.392z" fill="#c81e1e"/><path id="Shape" d="m38 11c0-3.89-3.777-6.82-5.825-5.14 1.7600183 1.11625188 2.8260425 3.05584993 2.825 5.14.0006153.8852181.0480147 1.7697851.142 2.65 1.4525685.7289703 2.6740031 1.8472338 3.528 3.23h.02c-.4538634-1.9272063-.6853737-3.9000771-.69-5.88z" fill="#c81e1e"/><path id="Shape" d="m41 40c-2.1788706.0814353-4.2541909-.9318314-5.53-2.7.98-4.14 2.99-7.73 3.96-11.38.78213-.0720727 1.5598885-.1855653 2.33-.34-.0694563 1.5679681.3651035 3.1169634 1.24 4.42 2 3 4 10-2 10z" fill="#f44335"/><path id="Shape" d="m43 30c-.8748965-1.3030366-1.3094563-2.8520319-1.24-4.42-.7701115.1544347-1.54787.2679273-2.33.34-.143.536-.312 1.072-.493 1.607.1997321.8825291.5600579 1.7208034 1.063 2.473 1.824 2.735 3.626 8.779-.614 9.827.5304831.1138672 1.071435.1718503 1.614.173 6 0 4-7 2-10z" fill="#c81e1e"/><circle id="Oval" cx="31" cy="21" fill="#607d8b" r="3"/></g><g id="Icons_copy" fill="#000"><path id="Shape" d="m.542 47.011c.25438111.3578946.60589262.635495 1.013.8-1.634 3.948-1.79 6.421-.5 7.734.96630985.8172783 2.29171253 1.0650313 3.488.652.54686123.9539738 1.47893873 1.6254195 2.557 1.842.84690013.1147781 1.70790263-.0558742 2.447-.485.34955891.6247937.9110331 1.1039798 1.583 1.351 1.2210707.3121 2.5166233.1123675 3.587-.553.7906939 1.01524 1.9964722 1.6205165 3.283 1.648 1.1415092-.0151387 2.2264771-.499396 3-1.339.7735229.839604 1.8584908 1.3238613 3 1.339 1.2767289-.0281025 2.4740037-.6256395 3.264-1.629 1.039347.6596482 2.2950257.8878229 3.5.636 1.1074872-.2995861 2.0740491-.97972 2.73-1.921 1.485.2 2.913.178 3.815-.714 1.208-1.2.886-3.258.354-6.675-.216-1.387-.461-2.959-.666-4.807-.1617018-1.5030069-.128089-3.0206263.1-4.515 1.3959499 1.0947652 3.1295225 1.6693227 4.903 1.625 2.65 0 3.862-1.225 4.413-2.253 1.5-2.8-.174-7.192-1.58-9.3-.6126905-.9138747-.9782272-1.970865-1.061-3.068.534-.128 1.054-.267 1.544-.43.9596137-.3259872 1.9015613-.7018316 2.822-1.126.8775399-.4919167 1.8572011-.7736292 2.862-.823.3472194.0017268.6704815-.1767847.8539596-.4715729s.2009065-.6636526.0460404-.9744271c-2.016498-4.4213347-6.5751166-7.1171503-11.421-6.754-.3162584-1.5804849-.4766935-3.1881853-.479-4.8.0208896-2.69017601-1.5126588-5.1507869-3.937-6.317-.8157279-.37008119-1.7405121-.42110131-2.592-.143-.756-1.64-2.291-4.34-4.326-4.634-.723561-.09699679-1.4554897.10403097-2.028.557-.7825606-.91020458-1.9168099-1.44257762-3.117-1.463-1.3337925.0350529-2.5768624.68333839-3.369 1.757-1.129-.42-3.142-.927-4.512.087-.9082562.75843764-1.3704958 1.925329-1.228 3.1-.9613914.0253275-1.8731643.432279-2.534 1.131-.988 1.12-1.091 2.883-.306 5.24.6311586 1.8550344 1.9651187 3.3882806 3.715 4.27-3.474 2.441-6.419 6.091-9.6 10.859-2.6 3.9-3.918 7.073-3.918 9.43-.02798142.7742351.15670438 1.5413383.534 2.218-2.628 4.516-3.339 7.359-2.24 8.919zm42.626-15.456c1.247 1.869 2.455 5.429 1.481 7.248-.5745309.8808442-1.6082367 1.3479434-2.649 1.197-1.7003142.0653571-3.3367063-.6525916-4.44-1.948.5446896-1.9455192 1.2127078-3.8543811 2-5.715.611-1.524 1.2-3.007 1.651-4.505.2-.023.395-.042.586-.07.1394006 1.3575495.6101995 2.6600588 1.371 3.793zm1.516-6.5c-.9651089.3153634-1.9548872.5495117-2.959.7.1227747-.6511121.2032763-1.3094884.241-1.971 1.7515928-.1190453 3.5111408-.0277274 5.241.272-.8229601.3757034-1.6651251.7078295-2.523.995zm4.065-2.744c-2.2340187-.4990251-4.5275524-.678481-6.812-.533-.100285-1.0286593-.3432839-2.0383498-.722-3 2.9257314-.0699544 5.7148642 1.2365029 7.534 3.529zm-34.8-11.623c-.528-1.582-.561-2.747-.1-3.28.577-.661 1.942-.425 1.95-.424.3221913.06425919.655393-.0338382.8913676-.26242615.2359747-.22858795.3446158-.55850245.2906324-.88257385-.205-1.231-.091-2.077.32-2.382.645-.476 2.319-.018 3.248.442.4920139.24064635 1.0861534.04437607 1.338-.442.4169211-.80797056 1.2095933-1.35455047 2.113-1.457.8985331.10254785 1.6873995.64482318 2.105 1.447.1542335.31248089.4600128.52213801.8070813.55337418.3470686.03123617.6853691-.12045377.8929187-.40037418.3886667-.51933333.742-.75733333 1.06-.714 1.1.157 2.561 2.758 3.2 4.466.1196591.31802435.3926206.5535269.7247471.62528886.3321265.07176197.6779681-.03003693.9182529-.27028886.4353492-.39990272 1.0798109-.47114974 1.592-.176 1.6763592.85529073 2.7227105 2.587196 2.7 4.469.0013319.9139373.0503987 1.8271813.147 2.736-2.089-1.592-5.279-2.736-10.147-2.736-3.5269455-.0918955-7.0203815.7045213-10.159 2.316-1.8048582-.5162133-3.2524291-1.8670811-3.892-3.632zm-9.092 27.827c.14068903-.2067488.19329464-.4609959.14620049-.7065984-.04709415-.2456026-.19001416-.4623577-.39720049-.6024016-.557-.5-1.065-3.215 3.226-9.651 5.993-8.99 10.758-13.555 20.168-13.555 7.738 0 12 3.2 12 9 0 2.875-1.113 5.653-2.292 8.593-1.542 3.849-3.291 8.213-2.7 13.517.21 1.892.459 3.487.678 4.894.374 2.4.7 4.47.215 4.946-.168.167-.746.395-2.734.064-.4304898-.0693928-.8568501.1456025-1.057.533-.3875599.721302-1.0389614 1.2648532-1.818 1.517-.9808086.1227512-1.9658215-.1933897-2.692-.864-.2363372-.1774166-.5390446-.2412141-.8268823-.1742706s-.5313258.2577717-.6651177.5212706c-.416959.8050647-1.2072591 1.349802-2.108 1.453-.8966897-.1041252-1.6833649-.6461818-2.1-1.447-.1694502-.3362797-.5134418-.5488587-.89-.55h-.01c-.375081.0014364-.7183451.2110163-.891.544-.4171514.8053372-1.2078903 1.3501184-2.109 1.453-.8966897-.1041252-1.6833649-.6461818-2.1-1.447-.1323226-.2670349-.3768528-.4611358-.6669496-.5294053s-.5955262-.0035923-.8330504.1764053c-.519.385-1.839 1.093-2.6.82-.376-.134-.655-.559-.831-1.262-.0875805-.3493178-.3562237-.6245632-.7033127-.7205973-.34708892-.0960342-.71900663.0019779-.9736873.2565973-.4991047.4901608-1.16946827.7666993-1.869.771-.559-.09-1.073-.6-1.529-1.511-.23632524-.4727229-.79969232-.6799333-1.286-.473-.488.206-1.7.51-2.131.07-.186-.191-.988-1.412 1.432-6.736.15608687-.3421552.10700939-.7429522-.12702171-1.0373376s-.61343886-.4325757-.98197829-.3576624c0 0-.469.062-.627-.162-.091-.135-.827-1.492 2.684-7.343z"/><path id="Shape" d="m32 26c2.209139 0 4-1.790861 4-4s-1.790861-4-4-4-4 1.790861-4 4 1.790861 4 4 4zm0-6c1.1045695 0 2 .8954305 2 2s-.8954305 2-2 2-2-.8954305-2-2 .8954305-2 2-2z"/><path id="Shape" d="m16.456 33.971c.7499736.8593481 1.8448726 1.3383893 2.985 1.306.6385877-.0076211 1.2717483-.118382 1.875-.328.5246705-.174522.808522-.7413295.634-1.266s-.7413295-.808522-1.266-.634c-2.055.686-2.729-.391-2.789-.5-.1705392-.337498-.516863-.5499357-.895-.549-.5412774.0342778-1.0710921-.1662515-1.4540249-.5503331s-.5818741-.9144946-.5459751-1.4556669c-.0016569-.5522847-.4507153-.9986568-1.003-.997-.5522847.0016569-.9986568.4507153-.997 1.003-.0551068 2.0206917 1.4470415 3.7466845 3.456 3.971z"/><path id="Shape" d="m20.886 42.537c-.2512896-.4918096-.8536904-.6867896-1.3455-.4355s-.6867896.8536904-.4355 1.3455c.456.911 2.016 2.353 4.758 1.636.9037791.5013765 1.9157458.7759012 2.949.8 1.0848073.0213601 2.1310209-.4025462 2.895-1.173.3789722-.3923789.3735524-1.0160848-.0121814-1.4018186s-1.0094397-.3911536-1.4018186-.0121814c-1.388 1.389-3.646-.064-3.738-.125-.2567214-.1713219-.578168-.2145013-.871-.117-2.043.677-2.72-.38-2.798-.517z"/></g></g></g></svg>